<svg xmlns="http://www.w3.org/2000/svg" version="1.1" xmlns:xlink="http://www.w3.org/1999/xlink" width="3105" height="3327"><svg width="3105" height="3327" viewBox="0 0 3105 3327" fill="none" xmlns="http://www.w3.org/2000/svg">
<path fill-rule="evenodd" clip-rule="evenodd" d="M1537.02 684.673C1610.85 714.947 1684.51 757.86 1751.2 809.346C1765.96 820.736 1801.7 849.839 1802.41 851.119C1802.47 851.261 1798.62 851.892 1793.73 852.495C1737.81 858.339 1653.15 876.069 1587.33 895.648C1489.47 924.669 1386.02 969.346 1295.02 1021.85C1116.55 1124.84 963.729 1265.74 857.106 1425.62C748.168 1588.96 689.117 1764.67 682.974 1944.45C678.665 2068.18 699.405 2189.47 745.472 2310.79C754.603 2334.76 765.393 2360.57 768.707 2366.54C774.503 2376.93 788.059 2384.25 799.699 2383.38C807.965 2382.76 814.942 2379.97 820.459 2375.06C824.4 2371.62 825.581 2369.66 828.203 2362.46C832.36 2351.04 831.802 2347.43 822.392 2325.19C770.991 2203.17 746.991 2083.75 749.263 1961.77C752.627 1784.5 809.938 1613.25 919.761 1452.28C1026.81 1295.4 1179.99 1159.27 1358.84 1061.98C1416.77 1030.44 1484.78 1000.08 1546.89 977.894C1671.97 933.384 1805.68 909.471 1929.38 909.466C2037.08 909.544 2129.94 922.816 2246.13 955.015C2272.31 962.275 2365.47 996.523 2391.87 1008.63C2544.03 1078.3 2663.84 1168.85 2766.07 1291.68C2926.22 1484.01 3027.4 1750.48 3042.96 2020.37C3052.02 2176.98 3031.37 2329.26 2983.4 2461.37C2929.06 2610.67 2840.21 2740.95 2720.33 2847.13C2565.38 2984.3 2365.38 3080.37 2097.52 3146.17C1933.21 3186.5 1776.69 3212.2 1429.79 3255.59C1234.39 3280.07 1146.5 3291.63 1064.65 3303.91L1020.36 3310.47L1017.62 3307.76C1016.18 3306.22 1004.16 3292.78 991.018 3277.9C955.249 3237.32 896.046 3171.67 830.899 3100.56C599.534 2847.71 531.54 2771.59 449.525 2673.37C259.129 2445.19 146.719 2265.35 90.7403 2099.14C63.7949 2019.26 43.4714 1923.74 35.8785 1841.04C23.3132 1705.93 34.4304 1582.4 70.8675 1451.19C79.6547 1419.35 107.134 1343.85 120.878 1313.46C178.859 1185.9 254.013 1076.26 350.873 978.161C431.802 896.256 517.847 831.399 618.888 776.327C687.717 738.891 773.219 701.177 844.01 677.269C1024.43 616.38 1204.75 601.614 1370.25 634.294C1403.13 640.814 1429.6 647.613 1471.59 660.515C1485.44 664.764 1515.39 675.78 1537.02 684.673Z" fill="#C86F40"></path>
<path fill-rule="evenodd" clip-rule="evenodd" d="M2431.65 71.2061C2434.73 73.3452 2438.13 76.1727 2439.14 77.5604C2440.89 79.7868 2440.78 80.4265 2438.37 85.4468C2432.26 97.7389 2413.97 116.254 2385.96 138.382C2377.25 145.302 2341.25 171.436 2305.92 196.68C2236.98 245.979 2214 262.906 2184.31 286.798C2088.39 363.703 2022.53 436.576 1974.67 518.382C1958.2 546.636 1937.36 590.421 1913.6 646.412C1903.3 670.56 1865.59 765.475 1858.12 786.003C1855.06 794.414 1850.57 805.142 1848.1 809.685C1844.98 815.695 1843.56 819.601 1842.86 823.769C1842.38 826.996 1841.75 829.714 1841.47 829.84C1841.15 830.065 1828.68 822.01 1813.71 812.14C1798.78 802.169 1780.16 790.176 1772.29 785.496C1764.53 780.855 1757.18 776.367 1755.94 775.576C1753.8 774.115 1753.83 774.015 1758.13 764.125C1760.47 758.628 1769.38 737.713 1777.91 717.8C1833.4 588.42 1888 474.024 1929.59 400.479C1950.9 362.762 1963.57 343.672 1993.65 303.024C2095.35 165.968 2191.19 72.5921 2260.04 43.1069C2266.91 40.2752 2274.15 37.6965 2276.23 37.432C2281.71 36.8176 2320 40.6598 2341.16 44.0541C2357.41 46.5654 2375.98 50.3762 2391.12 54.2994C2400.63 56.7384 2426.15 67.3895 2431.65 71.2061Z" fill="#5E4343"></path>
<path fill-rule="evenodd" clip-rule="evenodd" d="M2885.01 454.305C2922.23 472.616 2950.98 490.79 2980.79 515.022C2993.06 524.929 3010.64 541.079 3010.98 542.68C3011.38 544.184 2990.98 573.274 2976.59 591.966C2924.68 659.257 2856.87 723.372 2784.9 773.269C2675.17 849.34 2549.67 899.146 2414.29 920.296C2386.34 924.636 2341.18 929.408 2326.31 929.552C2233.96 930.298 2068.61 896.54 1868.11 835.924L1860.89 833.636L1862.56 831.296C1868.07 823.208 1912.11 778.226 1943.22 748.84C2006.66 689.03 2060.82 644.106 2124.37 598.741C2244 513.456 2380.65 449.34 2502.5 421.452C2615.17 395.666 2717.5 397.642 2817.17 427.459C2830.14 431.269 2872.16 447.926 2885.01 454.305Z" fill="#6F9B1B"></path>
</svg><style>@media (prefers-color-scheme: light) { :root { filter: none; } }
@media (prefers-color-scheme: dark) { :root { filter: none; } }
</style></svg>