<svg width="3106" height="3327" viewBox="0 0 3106 3327" fill="none" xmlns="http://www.w3.org/2000/svg">
<path fill-rule="evenodd" clip-rule="evenodd" d="M1537.19 684.673C1611.02 714.947 1684.68 757.86 1751.37 809.346C1766.13 820.736 1801.87 849.839 1802.58 851.119C1802.64 851.261 1798.79 851.892 1793.9 852.495C1737.97 858.339 1653.32 876.069 1587.5 895.648C1489.63 924.669 1386.19 969.346 1295.19 1021.85C1116.72 1124.84 963.898 1265.74 857.275 1425.62C748.337 1588.96 689.286 1764.67 683.143 1944.45C678.834 2068.18 699.574 2189.47 745.64 2310.79C754.772 2334.76 765.561 2360.57 768.876 2366.54C774.672 2376.93 788.228 2384.25 799.868 2383.38C808.134 2382.76 815.111 2379.97 820.628 2375.06C824.569 2371.62 825.75 2369.66 828.372 2362.46C832.529 2351.04 831.971 2347.43 822.561 2325.19C771.16 2203.17 747.16 2083.75 749.432 1961.77C752.796 1784.5 810.107 1613.25 919.93 1452.28C1026.98 1295.4 1180.16 1159.27 1359.01 1061.98C1416.94 1030.44 1484.95 1000.08 1547.06 977.894C1672.14 933.384 1805.85 909.471 1929.55 909.466C2037.25 909.544 2130.1 922.816 2246.3 955.015C2272.48 962.275 2365.64 996.523 2392.04 1008.63C2544.2 1078.3 2664.01 1168.85 2766.24 1291.68C2926.39 1484.01 3027.57 1750.48 3043.13 2020.37C3052.19 2176.98 3031.54 2329.26 2983.57 2461.37C2929.23 2610.67 2840.38 2740.95 2720.5 2847.13C2565.55 2984.3 2365.55 3080.37 2097.69 3146.17C1933.38 3186.5 1776.86 3212.2 1429.96 3255.59C1234.56 3280.07 1146.67 3291.63 1064.82 3303.91L1020.53 3310.47L1017.79 3307.76C1016.35 3306.22 1004.33 3292.78 991.187 3277.9C955.418 3237.32 896.215 3171.67 831.068 3100.56C599.703 2847.71 531.709 2771.59 449.694 2673.37C259.298 2445.19 146.888 2265.35 90.9093 2099.14C63.9639 2019.26 43.6403 1923.74 36.0475 1841.04C23.4822 1705.93 34.5993 1582.4 71.0365 1451.19C79.8236 1419.35 107.303 1343.85 121.047 1313.46C179.028 1185.9 254.182 1076.26 351.042 978.161C431.971 896.256 518.016 831.399 619.057 776.327C687.886 738.891 773.388 701.177 844.179 677.269C1024.6 616.38 1204.91 601.614 1370.42 634.294C1403.3 640.814 1429.76 647.613 1471.75 660.515C1485.61 664.764 1515.56 675.78 1537.19 684.673Z" fill="#C86F40"/>
<path fill-rule="evenodd" clip-rule="evenodd" d="M2431.82 71.2061C2434.89 73.3452 2438.3 76.1727 2439.31 77.5604C2441.06 79.7868 2440.95 80.4265 2438.54 85.4468C2432.43 97.7389 2414.14 116.254 2386.13 138.382C2377.42 145.302 2341.42 171.436 2306.09 196.68C2237.15 245.979 2214.17 262.906 2184.47 286.798C2088.56 363.703 2022.7 436.576 1974.84 518.382C1958.37 546.636 1937.53 590.421 1913.77 646.412C1903.46 670.56 1865.76 765.475 1858.29 786.003C1855.23 794.414 1850.74 805.142 1848.27 809.685C1845.15 815.695 1843.73 819.601 1843.03 823.769C1842.55 826.996 1841.92 829.714 1841.64 829.84C1841.32 830.065 1828.85 822.01 1813.88 812.14C1798.95 802.169 1780.33 790.176 1772.46 785.496C1764.7 780.855 1757.35 776.367 1756.11 775.576C1753.97 774.115 1754 774.015 1758.3 764.125C1760.64 758.628 1769.54 737.713 1778.08 717.8C1833.57 588.42 1888.17 474.024 1929.75 400.479C1951.07 362.762 1963.74 343.672 1993.82 303.024C2095.52 165.968 2191.36 72.5921 2260.21 43.1069C2267.08 40.2752 2274.32 37.6965 2276.4 37.432C2281.88 36.8176 2320.16 40.6598 2341.33 44.0541C2357.58 46.5654 2376.15 50.3762 2391.29 54.2994C2400.79 56.7384 2426.32 67.3895 2431.82 71.2061Z" fill="#5E4343"/>
<path fill-rule="evenodd" clip-rule="evenodd" d="M2885.18 454.305C2922.4 472.616 2951.15 490.79 2980.96 515.022C2993.23 524.929 3010.8 541.079 3011.15 542.68C3011.54 544.184 2991.15 573.274 2976.76 591.966C2924.85 659.257 2857.04 723.372 2785.07 773.269C2675.34 849.34 2549.84 899.146 2414.46 920.296C2386.5 924.636 2341.35 929.408 2326.48 929.552C2234.13 930.298 2068.78 896.54 1868.28 835.924L1861.06 833.636L1862.73 831.296C1868.24 823.208 1912.28 778.226 1943.39 748.84C2006.83 689.03 2060.99 644.106 2124.54 598.741C2244.17 513.456 2380.82 449.34 2502.67 421.452C2615.34 395.666 2717.67 397.642 2817.34 427.459C2830.3 431.269 2872.33 447.926 2885.18 454.305Z" fill="#6F9B1B"/>
</svg>
